<svg width="32" height="32" viewBox="0 0 32 32" fill="none" xmlns="http://www.w3.org/2000/svg">
  <!-- Background circle with gradient -->
  <defs>
    <linearGradient id="bgGradient" x1="0%" y1="0%" x2="100%" y2="100%">
      <stop offset="0%" style="stop-color:#667eea;stop-opacity:1" />
      <stop offset="100%" style="stop-color:#764ba2;stop-opacity:1" />
    </linearGradient>
    <linearGradient id="docGradient" x1="0%" y1="0%" x2="100%" y2="100%">
      <stop offset="0%" style="stop-color:#ffffff;stop-opacity:1" />
      <stop offset="100%" style="stop-color:#f8f9fa;stop-opacity:1" />
    </linearGradient>
  </defs>
  
  <!-- Background circle -->
  <circle cx="16" cy="16" r="15" fill="url(#bgGradient)" stroke="#ffffff" stroke-width="2"/>
  
  <!-- Document/Resume icon -->
  <rect x="8" y="6" width="12" height="16" rx="1" fill="url(#docGradient)" stroke="#e2e8f0" stroke-width="1"/>
  
  <!-- Document lines -->
  <rect x="10" y="9" width="8" height="1" rx="0.5" fill="#64748b"/>
  <rect x="10" y="11" width="6" height="1" rx="0.5" fill="#64748b"/>
  <rect x="10" y="13" width="7" height="1" rx="0.5" fill="#64748b"/>
  <rect x="10" y="15" width="5" height="1" rx="0.5" fill="#64748b"/>
  <rect x="10" y="17" width="8" height="1" rx="0.5" fill="#64748b"/>
  
  <!-- AI/Sparkle elements -->
  <circle cx="22" cy="10" r="1.5" fill="#fbbf24"/>
  <circle cx="24" cy="8" r="1" fill="#fbbf24"/>
  <circle cx="20" cy="8" r="0.8" fill="#fbbf24"/>
  
  <!-- Optimization arrow -->
  <path d="M22 18 L26 18 L24 16 M26 18 L24 20" stroke="#10b981" stroke-width="1.5" stroke-linecap="round" stroke-linejoin="round"/>
</svg> 